<svg width="160" height="32" viewBox="0 0 160 32" fill="none" xmlns="http://www.w3.org/2000/svg">
<path d="M0 0.000244141H4.98027V11.9345C4.98027 15.1717 6.97281 17.7527 10.265 17.7527C13.6412 17.7527 15.6338 15.1787 15.6338 11.9345V0.000244141H20.614V11.9787C20.614 18.4555 16.5448 22.626 10.265 22.626C4.02828 22.626 0 18.4555 0 11.9787V0.000244141Z" fill="black"/>
<path d="M151.253 14.8948H160V9.91675H151.253V0.0188521H146.27V25.9773C146.27 29.7474 148.481 31.9653 152.205 31.9653H160V26.9966H153.2C151.934 26.9966 151.253 26.2868 151.253 25.0882V14.8948Z" fill="black"/>
<path d="M55.2123 0.0258407H50.2275V31.9723H55.2123V0.0258407Z" fill="black"/>
<path d="M136.067 31.9653H141.047V19.9869C141.047 13.5101 137.021 9.33959 130.784 9.33959C124.504 9.33959 120.433 13.5101 120.433 19.9869V31.9653H125.413V20.0311C125.413 16.7869 127.406 14.2129 130.784 14.2129C134.074 14.2129 136.067 16.7939 136.067 20.0311V31.9653Z" fill="black"/>
<path d="M94.6863 9.34192C97.4536 9.34192 99.7961 10.2519 101.457 11.9741C103.118 13.6962 103.997 16.1236 103.997 18.9954V31.9583H99.0191V19.035C99.0521 17.7917 98.6399 16.5791 97.8603 15.6256C97.4597 15.1729 96.9676 14.8149 96.4183 14.5766C95.869 14.3383 95.2757 14.2253 94.6795 14.2455C94.105 14.2269 93.5327 14.3273 92.9971 14.5409C92.4614 14.7545 91.9734 15.0767 91.5623 15.4882C90.7972 16.3326 90.3531 17.43 90.3104 18.5812V31.9583H85.312V18.5789C85.2565 17.4287 84.8086 16.3349 84.0465 15.4882C83.6471 15.0794 83.1705 14.7583 82.6459 14.5446C82.1212 14.331 81.5595 14.2292 80.9951 14.2455C79.6683 14.2455 78.5459 14.7226 77.753 15.6256C76.9681 16.5765 76.5523 17.7902 76.5851 19.035V31.9583H71.6094V18.9954C71.6094 16.1236 72.5046 13.6916 74.1723 11.9717C75.8399 10.2519 78.2006 9.34192 80.9883 9.34192C82.3644 9.32462 83.7306 9.58314 85.0098 10.1029C86.0642 10.5377 87.0184 11.1933 87.8112 12.0276C88.6125 11.1923 89.5741 10.5362 90.6353 10.1006C91.9253 9.58252 93.3009 9.32487 94.6863 9.34192Z" fill="black"/>
<path d="M65.8885 32.0002V9.91675H60.9082V31.9653L65.8885 32.0002Z" fill="black"/>
<path d="M60.9105 6.76794H65.8885V0.0258407H60.9105V6.76794Z" fill="black"/>
<path d="M114.701 31.9653H109.72V9.91675H114.701V31.9653Z" fill="black"/>
<path d="M114.701 6.76794H109.72V0.0258407H114.701V6.76794Z" fill="black"/>
<path d="M39.5944 31.9653H44.5747V19.9869C44.5747 13.5101 40.5464 9.34192 34.3097 9.34192C28.0299 9.34192 23.9584 13.5101 23.9584 19.9869V31.9653H28.9387V20.0311C28.9387 16.7869 30.9312 14.2129 34.3097 14.2129C37.6019 14.2129 39.5944 16.7939 39.5944 20.0311V31.9653Z" fill="black"/>
</svg>
